<svg width="18" height="18" viewBox="0 0 18 18" fill="none" xmlns="http://www.w3.org/2000/svg">
<g filter="url(#filter0_d_2209_222)">
<path fill-rule="evenodd" clip-rule="evenodd" d="M13.8775 1.02038C14.1425 1.50493 13.9645 2.11257 13.48 2.37756C12.1086 3.12752 10.8208 4.69753 9.83744 6.20323C9.35808 6.93725 8.97349 7.62066 8.70899 8.12036C8.577 8.36972 8.47558 8.57205 8.40788 8.7105C8.37404 8.77969 8.34867 8.83283 8.33216 8.8678L8.3141 8.90633L8.31015 8.91485L8.30965 8.91595C8.15515 9.25365 7.82609 9.4782 7.45528 9.49867C7.08436 9.51914 6.73266 9.33231 6.54197 9.0135C6.23126 8.49403 5.73753 8.01982 5.27997 7.65807C5.05765 7.4823 4.85753 7.34372 4.71472 7.25017C4.64359 7.20358 4.58744 7.16865 4.55079 7.14636C4.53248 7.13522 4.5191 7.12728 4.51123 7.12265L4.50443 7.11866C4.02494 6.84496 3.85797 6.23442 4.13151 5.75478C4.40512 5.27503 5.01583 5.10792 5.49558 5.38153L5.00017 6.25019C5.49558 5.38153 5.49539 5.38142 5.49558 5.38153L5.49729 5.3825L5.49959 5.38382L5.50594 5.38749L5.52544 5.39888C5.5414 5.40827 5.56318 5.42123 5.59018 5.43766C5.64416 5.47049 5.71925 5.5173 5.81063 5.57716C5.99281 5.6965 6.2427 5.86964 6.52037 6.08918C6.73257 6.25696 6.96985 6.45869 7.20939 6.69111C7.46624 6.22973 7.78717 5.68499 8.1629 5.10965C9.17959 3.55285 10.6917 1.62286 12.5204 0.622817C13.0049 0.357824 13.6125 0.535817 13.8775 1.02038Z" fill="#8F8881"/>
</g>
<defs>
<filter id="filter0_d_2209_222" x="0" y="0.5" width="18.0004" height="17.0002" filterUnits="userSpaceOnUse" color-interpolation-filters="sRGB">
<feFlood flood-opacity="0" result="BackgroundImageFix"/>
<feColorMatrix in="SourceAlpha" type="matrix" values="0 0 0 0 0 0 0 0 0 0 0 0 0 0 0 0 0 0 127 0" result="hardAlpha"/>
<feOffset dy="4"/>
<feGaussianBlur stdDeviation="2"/>
<feComposite in2="hardAlpha" operator="out"/>
<feColorMatrix type="matrix" values="0 0 0 0 0 0 0 0 0 0 0 0 0 0 0 0 0 0 0.25 0"/>
<feBlend mode="normal" in2="BackgroundImageFix" result="effect1_dropShadow_2209_222"/>
<feBlend mode="normal" in="SourceGraphic" in2="effect1_dropShadow_2209_222" result="shape"/>
</filter>
</defs>
</svg>
